<?xml version="1.0" standalone="no"?>
<!DOCTYPE svg PUBLIC "-//W3C//DTD SVG 20010904//EN"
 "http://www.w3.org/TR/2001/REC-SVG-20010904/DTD/svg10.dtd">
<svg version="1.0" xmlns="http://www.w3.org/2000/svg"
 width="95.000000pt" height="88.000000pt" viewBox="0 0 95.000000 88.000000"
 preserveAspectRatio="xMidYMid meet">

<g transform="translate(0.000000,88.000000) scale(0.100000,-0.100000)"
fill="#000000" stroke="none">
<path d="M422 730 c-37 -23 -62 -72 -62 -122 0 -25 -10 -41 -48 -77 -57 -54
-82 -90 -106 -149 -22 -57 -12 -69 29 -38 19 15 35 26 37 26 2 0 4 -20 5 -43
1 -24 9 -61 19 -83 l17 -39 7 51 c16 111 59 182 125 204 93 31 175 -55 194
-204 l7 -51 18 35 c11 19 20 56 20 82 1 27 3 48 5 48 2 0 17 -12 33 -26 44
-36 53 -18 27 52 -17 44 -37 74 -82 117 -56 54 -61 63 -68 114 -14 101 -100
151 -177 103z m48 -85 c0 -17 -16 -20 -25 -5 -9 15 -25 12 -25 -5 0 -8 -4 -15
-10 -15 -17 0 -11 38 7 49 21 11 53 -3 53 -24z m90 -5 c0 -11 -4 -20 -10 -20
-5 0 -10 7 -10 15 0 17 -16 20 -25 5 -9 -15 -25 -12 -25 5 0 7 8 18 17 24 23
12 53 -4 53 -29z m-17 -49 c8 -8 1 -22 -26 -48 l-37 -37 -35 34 c-19 19 -35
38 -35 42 0 26 109 33 133 9z"/>
</g>
</svg>
